<?xml version="1.0" encoding="UTF-8"?>
<svg width="200" height="200" viewBox="0 0 200 200" xmlns="http://www.w3.org/2000/svg">
  <!-- رأس الروبوت -->
  <rect x="50" y="40" width="100" height="80" rx="10" ry="10" fill="#FFD700" stroke="#000" stroke-width="2"/>
  
  <!-- عيون الروبوت -->
  <circle cx="80" cy="70" r="10" fill="#1E1E1E"/>
  <circle cx="120" cy="70" r="10" fill="#1E1E1E"/>
  
  <!-- بريق العيون -->
  <circle cx="77" cy="67" r="3" fill="#FFFFFF"/>
  <circle cx="117" cy="67" r="3" fill="#FFFFFF"/>
  
  <!-- الفم -->
  <rect x="70" y="95" width="60" height="10" rx="5" ry="5" fill="#1E1E1E"/>
  
  <!-- هوائيات -->
  <line x1="70" y1="40" x2="60" y2="20" stroke="#000" stroke-width="2"/>
  <line x1="130" y1="40" x2="140" y2="20" stroke="#000" stroke-width="2"/>
  <circle cx="60" cy="20" r="5" fill="#FFD700" stroke="#000" stroke-width="1"/>
  <circle cx="140" cy="20" r="5" fill="#FFD700" stroke="#000" stroke-width="1"/>
  
  <!-- جسم الروبوت -->
  <rect x="60" y="120" width="80" height="50" rx="5" ry="5" fill="#FFD700" stroke="#000" stroke-width="2"/>
  
  <!-- أزرار التحكم -->
  <circle cx="80" cy="135" r="5" fill="#1E1E1E"/>
  <circle cx="100" cy="135" r="5" fill="#1E1E1E"/>
  <circle cx="120" cy="135" r="5" fill="#1E1E1E"/>
  
  <!-- معلومات على الشاشة -->
  <rect x="70" y="150" width="60" height="15" rx="2" ry="2" fill="#1E1E1E"/>
  <line x1="75" y1="155" x2="90" y2="155" stroke="#00E676" stroke-width="1"/>
  <line x1="75" y1="160" x2="85" y2="160" stroke="#00E676" stroke-width="1"/>
  <line x1="95" y1="155" x2="125" y2="155" stroke="#FFD700" stroke-width="1"/>
  <line x1="95" y1="160" x2="120" y2="160" stroke="#FFD700" stroke-width="1"/>
  
  <!-- ذراع الروبوت -->
  <rect x="40" y="130" width="20" height="10" rx="5" ry="5" fill="#FFD700" stroke="#000" stroke-width="1"/>
  <rect x="140" y="130" width="20" height="10" rx="5" ry="5" fill="#FFD700" stroke="#000" stroke-width="1"/>
  
  <!-- أرجل الروبوت -->
  <rect x="70" y="170" width="10" height="20" rx="3" ry="3" fill="#FFD700" stroke="#000" stroke-width="1"/>
  <rect x="120" y="170" width="10" height="20" rx="3" ry="3" fill="#FFD700" stroke="#000" stroke-width="1"/>
</svg>
